<?xml version="1.0" encoding="UTF-8" standalone="no"?>
<svg width="588px" height="588px" viewBox="0 0 588 588" version="1.1" xmlns="http://www.w3.org/2000/svg" xmlns:xlink="http://www.w3.org/1999/xlink" xmlns:sketch="http://www.bohemiancoding.com/sketch/ns">
    <!-- Generator: Sketch 3.4.1 (15681) - http://www.bohemiancoding.com/sketch -->
    <title>target</title>
    <desc>Created with Sketch.</desc>
    <defs></defs>
    <g id="Page-1" stroke="none" stroke-width="1" fill="none" fill-rule="evenodd" sketch:type="MSPage">
        <path d="M252.34153,240.739957 C235.145168,253.494229 224,273.945568 224,297 C224,320.052036 235.142851,340.501519 252.336167,353.256065 L252.336167,353.256065 M336.121347,352.913774 C353.054564,340.137397 364,319.84692 364,297 C364,274.165868 353.066814,253.885319 336.149776,241.107688 M364.499634,295.5 L586.500565,295.5 M1.49943578,295.5 L223.499436,295.5" id="target" stroke-opacity="0.288977582" stroke="#FFFFFF" stroke-width="2" stroke-linecap="round" sketch:type="MSShapeGroup"></path>
        <g id="details" sketch:type="MSLayerGroup" transform="translate(206.000000, 281.000000)" fill-opacity="0.250424592" fill="#FFFFFF">
            <polygon id="Triangle-1" sketch:type="MSShapeGroup" points="4 0 8 7 0 7 "></polygon>
            <polygon id="Triangle-1" sketch:type="MSShapeGroup" transform="translate(4.000000, 27.500000) scale(1, -1) translate(-4.000000, -27.500000) " points="4 24 8 31 0 31 "></polygon>
        </g>
    </g>
</svg>